<svg xmlns="http://www.w3.org/2000/svg" width="120" height="360" viewBox="0 0 120 360">
  <defs>
    <style>
      .cls-1 {
        fill: #fff;
      }

      .cls-1, .cls-2 {
        fill-rule: evenodd;
      }

      .cls-2 {
        fill: #333;
      }
    </style>
  </defs>
  <path id="icon" class="cls-1" d="M38.985,336.864l-2.121,2.121L30.5,332.621l-6.364,6.364-2.121-2.121,6.364-6.364-6.364-6.364,2.121-2.121,6.364,6.364,6.364-6.364,2.121,2.121L32.621,330.5Z"/>
  <path id="icon-2" data-name="icon" class="cls-2" d="M98.985,336.864l-2.121,2.121L90.5,332.621l-6.364,6.364-2.121-2.121,6.364-6.364-6.364-6.364,2.121-2.121,6.364,6.364,6.364-6.364,2.121,2.121L92.621,330.5Z"/>
  <path id="icon-3" data-name="icon" class="cls-1" d="M40,38H22l-5.01,5.014L17,20a3.345,3.345,0,0,1,3-3H40a3.345,3.345,0,0,1,3,3V35A3.345,3.345,0,0,1,40,38ZM30,34c2.773,0,5.126-2.089,6-5H24C24.874,31.911,27.227,34,30,34ZM25.492,20.989A2.5,2.5,0,1,0,28,23.485,2.5,2.5,0,0,0,25.492,20.989Zm9,0A2.5,2.5,0,1,0,37,23.485,2.5,2.5,0,0,0,34.492,20.989Z"/>
  <path id="icon-4" data-name="icon" class="cls-1" d="M40,98H22l-5.01,5.013L17,80a3.345,3.345,0,0,1,3-3H40a3.345,3.345,0,0,1,3,3V95A3.345,3.345,0,0,1,40,98Z"/>
  <path id="icon-5" data-name="icon" class="cls-1" d="M31,140v11l-4-4-4,4V140h8Zm-9.238-4.012a2.725,2.725,0,0,0-1.93.792A2.494,2.494,0,0,0,19,138.65v21.676a2.491,2.491,0,0,0,.836,1.87,2.716,2.716,0,0,0,1.93.792H38.23a2.72,2.72,0,0,0,1.93-.792,2.5,2.5,0,0,0,.836-1.87V138.65a2.5,2.5,0,0,0-.836-1.87,2.728,2.728,0,0,0-1.93-.792H21.762Z"/>
  <path id="icon-6" data-name="icon" class="cls-1" d="M10.018,209.994a19.261,19.261,0,0,0,5.868,14.132,19.261,19.261,0,0,0,14.132,5.868,19.266,19.266,0,0,0,14.131-5.868,19.949,19.949,0,0,0,0-28.263,19.267,19.267,0,0,0-14.131-5.869,19.262,19.262,0,0,0-14.131,5.869A19.264,19.264,0,0,0,10.018,209.994ZM22,206h4a3.79,3.79,0,0,1,1.2-2.813,3.966,3.966,0,0,1,5.634,0,3.724,3.724,0,0,1,1.221,2.77,3.4,3.4,0,0,1-.939,2.347,9.781,9.781,0,0,1-2.066,1.737,6.63,6.63,0,0,0-2.066,2.254A7.019,7.019,0,0,0,28,216h4c0-1.439.991-3.048,2.995-4.832s3-3.521,3-5.211a8.016,8.016,0,0,0-7.981-7.982,7.68,7.68,0,0,0-5.634,2.348,7.841,7.841,0,0,0-2.362,5.695C22.037,205.957,22,206,22,206Zm10,16v-4H28v4h4Z"/>
  <path id="icon-7" data-name="icon" class="cls-1" d="M44.15,284.126a19.266,19.266,0,0,1-14.132,5.868,19.261,19.261,0,0,1-14.131-5.868,19.949,19.949,0,0,1,0-28.263,19.262,19.262,0,0,1,14.131-5.869,19.267,19.267,0,0,1,14.132,5.869A19.949,19.949,0,0,1,44.15,284.126Zm-6.782-17.268a8.178,8.178,0,0,1,0,6.271l5.146,5.146a15.1,15.1,0,0,0,0-16.564Zm-10.2.315A3.989,3.989,0,1,0,30,266,3.851,3.851,0,0,0,27.171,267.173Zm11.106,15.346-5.146-5.146a8.177,8.177,0,0,1-6.275,0l-5.15,5.15A14.38,14.38,0,0,0,29.99,285,14.38,14.38,0,0,0,38.277,282.519Zm-20.8-4.222,5.15-5.15a8.171,8.171,0,0,1-.007-6.285l-5.153-5.153A15.1,15.1,0,0,0,17.477,278.3ZM29.99,255a14.377,14.377,0,0,0-8.28,2.472l5.152,5.152a8.179,8.179,0,0,1,6.281.01l5.147-5.147A14.383,14.383,0,0,0,29.99,255Z"/>
  <path id="icon-8" data-name="icon" class="cls-2" d="M100,38H82l-5.01,5.014L77,20a3.345,3.345,0,0,1,3-3h20a3.345,3.345,0,0,1,3,3V35A3.345,3.345,0,0,1,100,38ZM90,34c2.773,0,5.126-2.089,6-5H84C84.874,31.911,87.227,34,90,34ZM85.492,20.989A2.5,2.5,0,1,0,88,23.485,2.5,2.5,0,0,0,85.492,20.989Zm9,0A2.5,2.5,0,1,0,97,23.485,2.5,2.5,0,0,0,94.492,20.989Z"/>
  <path id="icon-9" data-name="icon" class="cls-2" d="M100,98H82l-5.01,5.013L77,80a3.345,3.345,0,0,1,3-3h20a3.346,3.346,0,0,1,3,3V95A3.346,3.346,0,0,1,100,98Z"/>
  <path id="icon-10" data-name="icon" class="cls-2" d="M91,140v11l-4-4-4,4V140h8Zm-9.238-4.012a2.725,2.725,0,0,0-1.93.792A2.494,2.494,0,0,0,79,138.65v21.676a2.491,2.491,0,0,0,.836,1.87,2.716,2.716,0,0,0,1.93.792H98.23a2.721,2.721,0,0,0,1.93-.792,2.494,2.494,0,0,0,.836-1.87V138.65a2.5,2.5,0,0,0-.836-1.87,2.73,2.73,0,0,0-1.93-.792H81.762Z"/>
  <path id="icon-11" data-name="icon" class="cls-2" d="M70.018,209.994a20.036,20.036,0,0,0,20,20,20,20,0,1,0-14.131-34.131A19.264,19.264,0,0,0,70.018,209.994ZM82,206h4a3.79,3.79,0,0,1,1.2-2.813,3.966,3.966,0,0,1,5.634,0,3.724,3.724,0,0,1,1.221,2.77,3.4,3.4,0,0,1-.939,2.347,9.781,9.781,0,0,1-2.066,1.737,6.63,6.63,0,0,0-2.066,2.254A7.019,7.019,0,0,0,88,216h4c0-1.439.991-3.048,2.995-4.832s3-3.521,3-5.211a7.967,7.967,0,0,0-13.615-5.634,7.841,7.841,0,0,0-2.362,5.695C82.037,205.957,82,206,82,206Zm10,16v-4H88v4h4Z"/>
  <path id="icon-12" data-name="icon" class="cls-2" d="M104.15,284.126a19.95,19.95,0,0,1-28.263,0,20,20,0,0,1,14.131-34.132A19.986,19.986,0,0,1,104.15,284.126Zm-6.782-17.268a8.178,8.178,0,0,1,0,6.271l5.146,5.146a15.1,15.1,0,0,0,0-16.564Zm-10.2.315A3.989,3.989,0,1,0,90,266,3.851,3.851,0,0,0,87.171,267.173Zm11.106,15.346-5.146-5.146a8.177,8.177,0,0,1-6.276,0l-5.15,5.15A15.1,15.1,0,0,0,98.277,282.519Zm-20.8-4.222,5.15-5.15a8.171,8.171,0,0,1-.007-6.285l-5.153-5.153A15.1,15.1,0,0,0,77.477,278.3ZM89.99,255a14.377,14.377,0,0,0-8.28,2.472l5.152,5.152a8.179,8.179,0,0,1,6.281.01l5.147-5.147A14.383,14.383,0,0,0,89.99,255Z"/>
</svg>
