<svg xmlns="http://www.w3.org/2000/svg" width="121" height="60" viewBox="0 0 121 60">
  <defs>
    <style>
      .cls-1, .cls-2 {
        fill: #d3d3d3;
      }

      .cls-2, .cls-3 {
        fill-rule: evenodd;
      }

      .cls-3 {
        fill: #fff;
        stroke: #010101;
        stroke-width: 0;
      }
    </style>
  </defs>
  <rect fill="#d3d3d3" x="92" y="16" width="23" height="28" rx="2" ry="2"/>
  <path fill="#d3d3d3" d="M111.5,47a3.5,3.5,0,1,1-3.5,3.5A3.5,3.5,0,0,1,111.5,47Zm0,0a3.5,3.5,0,1,1-3.5,3.5A3.5,3.5,0,0,1,111.5,47Z"/>
  <path fill-rule="evenodd" fill="#d3d3d3" d="M8,14H52a2,2,0,0,1,2,2V37a2,2,0,0,1-2,2H8a2,2,0,0,1-2-2V16A2,2,0,0,1,8,14ZM50.5,47A3.5,3.5,0,1,1,47,50.5,3.5,3.5,0,0,1,50.5,47Z"/>
  <path fill="#fff" stroke="#010101" stroke-width="0" d="M51,22l-1,1-2-2-2,2-1-1,2-2-2-2,1-1,2,2,2-2,1,1-2,2Z"/>
</svg>
