<svg xmlns="http://www.w3.org/2000/svg" width="60" height="180" viewBox="0 0 60 180">
  <defs>
    <style>
      .cls-1 {
        fill: #9e9e9e;
      }

      .cls-1, .cls-2, .cls-3 {
        fill-rule: evenodd;
      }

      .cls-2 {
        fill: #fff;
      }

      .cls-3 {
        fill: #333;
      }
    </style>
  </defs>
  <path id="icon-new-tab" class="cls-1" d="M21,160h3l-6,5,2,2,5-5v2h2l-0.008-6.006L21,158v2Zm-6,10V160h5l-0.008-2.006L14.4,158a1.162,1.162,0,0,0-.952.468A1.185,1.185,0,0,0,13,159.4v11.2a1.16,1.16,0,0,0,.448.92,1.168,1.168,0,0,0,.952.48H25.6a1.737,1.737,0,0,0,1.4-1.4V165H25v5H15Z"/>
  <path id="icon-binaka" class="cls-2" d="M40,38H22l-5.01,5.014L17,20a3.345,3.345,0,0,1,3-3H40a3.345,3.345,0,0,1,3,3V35A3.345,3.345,0,0,1,40,38ZM30,34c2.773,0,5.126-2.089,6-5H24C24.874,31.911,27.227,34,30,34ZM25.492,20.989A2.5,2.5,0,1,0,28,23.485,2.5,2.5,0,0,0,25.492,20.989Zm9,0A2.5,2.5,0,1,0,37,23.485,2.5,2.5,0,0,0,34.492,20.989Z"/>
  <path id="icon-close" class="cls-2" d="M38.985,96.864l-2.121,2.121L30.5,92.621l-6.364,6.364-2.121-2.121L28.379,90.5l-6.364-6.364,2.121-2.121L30.5,88.379l6.364-6.364,2.121,2.121L32.621,90.5Z"/>
  <path id="icon-search" class="cls-1" d="M14.3,132.583h-0.9l-0.32-.309a7.44,7.44,0,1,0-.8.8l0.309,0.32v0.9l5.719,5.707,1.7-1.7Zm-6.863,0a5.148,5.148,0,1,1,5.147-5.148A5.141,5.141,0,0,1,7.435,132.583Z"/>
  <path id="icon-back" class="cls-3" d="M8.01,170.59L3.062,166l4.947-4.59L6.486,160,0,166l6.482,6Z"/>
  <path id="icon-check" class="cls-2" d="M36,161.111L41.426,166,51,157.139,48.766,155l-7.34,7.028-3.192-3.056Z"/>
</svg>
